<?xml version="1.0" encoding="UTF-8"?>
<!DOCTYPE svg PUBLIC "-//W3C//DTD SVG 1.1//EN" "http://www.w3.org/Graphics/SVG/1.1/DTD/svg11.dtd">
<svg xmlns="http://www.w3.org/2000/svg" version="1.1" width="291px" height="214px" style="shape-rendering:geometricPrecision; text-rendering:geometricPrecision; image-rendering:optimizeQuality; fill-rule:evenodd; clip-rule:evenodd" xmlns:xlink="http://www.w3.org/1999/xlink">
<g><path style="opacity:1" fill="#56b881" d="M -0.5,-0.5 C 96.5,-0.5 193.5,-0.5 290.5,-0.5C 290.5,70.8333 290.5,142.167 290.5,213.5C 193.5,213.5 96.5,213.5 -0.5,213.5C -0.5,142.167 -0.5,70.8333 -0.5,-0.5 Z"/></g>
<g><path style="opacity:1" fill="#f5fbf8" d="M 239.5,141.5 C 240.919,142.451 242.585,142.784 244.5,142.5C 244.831,118.328 244.498,94.3275 243.5,70.5C 210.788,72.6254 178.121,75.2921 145.5,78.5C 145.808,80.924 145.474,83.2573 144.5,85.5C 143.513,82.2317 143.18,78.8984 143.5,75.5C 177.86,73.1946 212.193,70.5279 246.5,67.5C 246.5,93.1667 246.5,118.833 246.5,144.5C 212.158,141.943 177.825,139.276 143.5,136.5C 143.18,133.102 143.513,129.768 144.5,126.5C 145.474,128.743 145.808,131.076 145.5,133.5C 176.825,136.24 208.159,138.906 239.5,141.5 Z"/></g>
<g><path style="opacity:1" fill="#f6fbf8" d="M 53.5,88.5 C 56.1194,88.2317 58.6194,88.565 61,89.5C 64.6667,95.5 68.3333,101.5 72,107.5C 72.3333,101.5 72.6667,95.5 73,89.5C 75.3806,88.565 77.8806,88.2317 80.5,88.5C 80.5,100.167 80.5,111.833 80.5,123.5C 77.7531,123.813 75.0865,123.48 72.5,122.5C 69,116.833 65.5,111.167 62,105.5C 61.6667,111.167 61.3333,116.833 61,122.5C 58.3333,123.833 55.6667,123.833 53,122.5C 52.1901,111.091 52.3568,99.7572 53.5,88.5 Z"/></g>
<g><path style="opacity:1" fill="#f9fcfb" d="M 113.5,89.5 C 113.5,91.5 113.5,93.5 113.5,95.5C 107.974,95.1786 102.64,95.5119 97.5,96.5C 96.5489,97.9187 96.2155,99.5853 96.5,101.5C 101.833,101.5 107.167,101.5 112.5,101.5C 112.5,103.833 112.5,106.167 112.5,108.5C 107.305,108.179 102.305,108.513 97.5,109.5C 96.5318,111.607 96.1984,113.941 96.5,116.5C 102.5,116.5 108.5,116.5 114.5,116.5C 115.811,118.56 115.811,120.726 114.5,123C 105.84,123.5 97.1731,123.666 88.5,123.5C 88.3335,112.162 88.5001,100.828 89,89.5C 97.265,88.1724 105.432,88.1724 113.5,89.5 Z"/></g>
<g><path style="opacity:1" fill="#f4fbf8" d="M 118.5,88.5 C 121.572,88.1826 124.572,88.5159 127.5,89.5C 129.333,92.5 131.167,95.5 133,98.5C 134.804,95.089 136.971,91.9224 139.5,89C 142.146,88.5026 144.813,88.3359 147.5,88.5C 144.789,94.4066 141.789,100.24 138.5,106C 141.366,111.564 144.366,117.064 147.5,122.5C 144.894,123.652 142.227,123.818 139.5,123C 137.457,119.747 135.29,116.58 133,113.5C 131.204,116.927 129.037,120.094 126.5,123C 123.854,123.497 121.187,123.664 118.5,123.5C 121.626,117.631 124.626,111.631 127.5,105.5C 124.237,99.9746 121.237,94.3079 118.5,88.5 Z"/></g>
<g><path style="opacity:1" fill="#f7fcfa" d="M 162.5,88.5 C 165.119,88.2317 167.619,88.565 170,89.5C 174.068,100.539 178.235,111.539 182.5,122.5C 179.572,123.484 176.572,123.817 173.5,123.5C 173.637,118.602 171.137,116.602 166,117.5C 163.833,117.833 161.667,118.167 159.5,118.5C 157.727,123.019 154.393,124.686 149.5,123.5C 151.821,114.702 154.655,106.036 158,97.5C 159.033,94.2155 160.533,91.2155 162.5,88.5 Z"/></g>
<g><path style="opacity:1" fill="#f7fcf9" d="M 205.5,89.5 C 209.02,90.1828 211.52,92.1828 213,95.5C 215.363,109.274 209.53,114.941 195.5,112.5C 195.813,116.042 195.479,119.375 194.5,122.5C 192.167,122.5 189.833,122.5 187.5,122.5C 187.5,111.5 187.5,100.5 187.5,89.5C 193.5,89.5 199.5,89.5 205.5,89.5 Z"/></g>
<g><path style="opacity:1" fill="#f8fcfa" d="M 222.5,115.5 C 223.491,109.021 223.824,102.354 223.5,95.5C 222.167,95.5 220.833,95.5 219.5,95.5C 218.189,93.4402 218.189,91.2735 219.5,89C 224.833,88.3333 230.167,88.3333 235.5,89C 236.423,91.0408 236.756,93.2075 236.5,95.5C 234.833,95.5 233.167,95.5 231.5,95.5C 231.5,102.167 231.5,108.833 231.5,115.5C 233.144,115.286 234.644,115.62 236,116.5C 236.758,118.769 236.591,120.936 235.5,123C 229.843,123.499 224.176,123.666 218.5,123.5C 218.5,121.167 218.5,118.833 218.5,116.5C 220.099,116.768 221.432,116.434 222.5,115.5 Z"/></g>
<g><path style="opacity:1" fill="#58b882" d="M 195.5,96.5 C 198.572,96.1826 201.572,96.5159 204.5,97.5C 206.04,100.291 205.706,102.791 203.5,105C 200.854,105.497 198.187,105.664 195.5,105.5C 195.5,102.5 195.5,99.5 195.5,96.5 Z"/></g>
<g><path style="opacity:1" fill="#60bc88" d="M 165.5,99.5 C 167.002,102.654 168.336,105.987 169.5,109.5C 167.257,110.474 164.924,110.808 162.5,110.5C 163.297,106.777 164.297,103.11 165.5,99.5 Z"/></g>
</svg>
